<?xml version="1.0" encoding="UTF-8"?>
<!DOCTYPE svg PUBLIC "-//W3C//DTD SVG 1.1//EN" "http://www.w3.org/Graphics/SVG/1.1/DTD/svg11.dtd">
<svg xmlns="http://www.w3.org/2000/svg" version="1.1" width="512px" height="512px" style="shape-rendering:geometricPrecision; text-rendering:geometricPrecision; image-rendering:optimizeQuality; fill-rule:evenodd; clip-rule:evenodd" xmlns:xlink="http://www.w3.org/1999/xlink">
<g><path style="opacity:0.926" fill="#63AB45" d="M 298.5,11.5 C 327.745,9.59062 344.078,23.0906 347.5,52C 346.643,72.1901 336.643,85.5235 317.5,92C 310.466,93.4485 303.466,93.9485 296.5,93.5C 299.578,100.257 300.245,107.257 298.5,114.5C 308.207,131.709 318.54,148.543 329.5,165C 345.01,173.255 360.677,181.255 376.5,189C 380.358,191.358 383.358,194.525 385.5,198.5C 392.57,201.273 398.403,205.607 403,211.5C 404.833,220.333 401.333,223.833 392.5,222C 390.376,220.878 388.543,219.378 387,217.5C 380.339,229.915 370.172,234.915 356.5,232.5C 365.612,256.391 374.445,280.391 383,304.5C 383.481,306.478 384.647,307.811 386.5,308.5C 438.933,298.468 477.1,317.135 501,364.5C 516.854,410.93 506.021,449.763 468.5,481C 431.079,505.266 393.412,505.6 355.5,482C 319.171,453.346 307.004,416.512 319,371.5C 328.198,345.967 344.865,326.967 369,314.5C 365.632,302.731 361.632,291.064 357,279.5C 329,315.5 301,351.5 273,387.5C 272.018,388.759 271.685,390.092 272,391.5C 276,395.5 280,399.5 284,403.5C 288.667,410.167 288.667,416.833 284,423.5C 281.374,426.231 278.207,428.064 274.5,429C 255.511,430.182 236.511,430.515 217.5,430C 208.601,426.77 203.935,420.437 203.5,411C 208.726,378.297 212.559,345.464 215,312.5C 207.667,304.5 200.333,296.5 193,288.5C 182.974,301.693 173.14,315.026 163.5,328.5C 197.29,359.995 206.456,397.661 191,441.5C 169.757,485.043 134.924,504.543 86.5,500C 41.7874,490.954 14.6207,464.121 5,419.5C -0.234423,375.811 15.5989,342.311 52.5,319C 85.2699,302.172 117.937,302.339 150.5,319.5C 161.288,305.423 171.955,291.256 182.5,277C 169.09,262.669 157.257,247.169 147,230.5C 140.909,219.99 139.909,208.99 144,197.5C 158.545,156.557 181.045,120.724 211.5,90C 221.504,80.6613 232.838,73.3279 245.5,68C 253.221,65.6898 260.721,66.1898 268,69.5C 261.889,50.3809 266.056,33.8809 280.5,20C 286.208,16.3101 292.208,13.4768 298.5,11.5 Z M 303.5,26.5 C 325.836,28.8344 334.002,40.8344 328,62.5C 318.447,76.9012 305.947,80.0679 290.5,72C 280.368,61.6168 278.868,50.1168 286,37.5C 290.578,31.6384 296.411,27.9717 303.5,26.5 Z M 252.5,81.5 C 255.988,81.7054 259.321,82.5387 262.5,84C 269.576,88.4058 276.076,93.5724 282,99.5C 284.7,104.061 285.2,108.894 283.5,114C 283.582,117.235 284.082,120.402 285,123.5C 295.875,142.089 307.375,160.256 319.5,178C 335.5,186 351.5,194 367.5,202C 374.783,208.694 373.783,213.527 364.5,216.5C 341.904,207.688 319.57,198.188 297.5,188C 286.288,169.746 275.455,151.246 265,132.5C 260.799,124.658 255.466,123.658 249,129.5C 248.333,131.833 248.333,134.167 249,136.5C 252.914,143.996 257.08,151.329 261.5,158.5C 247.642,175.857 233.976,193.357 220.5,211C 199.13,214.709 178.13,213.209 157.5,206.5C 171.772,164.446 194.772,127.946 226.5,97C 234.468,90.5216 243.135,85.355 252.5,81.5 Z M 269.5,173.5 C 275.1,183.189 281.1,192.689 287.5,202C 303.748,209.135 320.081,215.968 336.5,222.5C 340.096,233.618 344.096,244.618 348.5,255.5C 317.833,256.833 287.167,256.833 256.5,255.5C 249.167,243.5 241.833,231.5 234.5,219.5C 246.191,204.148 257.858,188.815 269.5,173.5 Z M 162.5,224.5 C 181.73,228.816 201.063,229.483 220.5,226.5C 234.503,248.501 248.003,270.834 261,293.5C 263.183,298.995 263.849,304.661 263,310.5C 257.98,331.913 252.647,353.246 247,374.5C 239.755,376.294 232.255,377.294 224.5,377.5C 227.512,353.891 229.679,330.224 231,306.5C 209.215,283.721 188.548,260.055 169,235.5C 166.579,231.929 164.413,228.262 162.5,224.5 Z M 266.5,273.5 C 291.663,272.337 316.997,272.17 342.5,273C 316.213,306.409 290.046,339.909 264,373.5C 267.995,355.518 272.328,337.518 277,319.5C 280.871,302.35 277.371,287.016 266.5,273.5 Z M 411.5,320.5 C 462.218,324.551 490.218,351.885 495.5,402.5C 490.344,452.656 462.678,479.989 412.5,484.5C 372.794,482.417 346.294,462.75 333,425.5C 324.108,383.3 338.108,351.3 375,329.5C 385.05,354.978 394.717,380.645 404,406.5C 408.745,411.743 413.412,411.743 418,406.5C 418.738,402.739 418.405,399.072 417,395.5C 408.167,371.833 399.333,348.167 390.5,324.5C 397.446,322.348 404.446,321.015 411.5,320.5 Z M 88.5,321.5 C 107.143,319.294 124.476,322.961 140.5,332.5C 124.526,354.308 108.359,375.975 92,397.5C 88.9761,407.473 92.4761,411.306 102.5,409C 119.667,386.5 136.833,364 154,341.5C 175.258,360.719 184.258,384.719 181,413.5C 173.388,453.446 149.554,476.946 109.5,484C 64.8541,485.775 35.3541,465.608 21,423.5C 13.4187,385.222 25.5854,355.055 57.5,333C 67.3333,327.449 77.6666,323.616 88.5,321.5 Z M 246.5,391.5 C 247.552,391.351 248.552,391.517 249.5,392C 256.53,399.365 263.864,406.365 271.5,413C 254.848,414.258 238.181,414.591 221.5,414C 221,413.5 220.5,413 220,412.5C 220.176,406.108 221.009,399.774 222.5,393.5C 230.657,392.833 238.657,392.167 246.5,391.5 Z"/></g>
</svg>
