<?xml version="1.0" encoding="UTF-8"?>
<!DOCTYPE svg PUBLIC "-//W3C//DTD SVG 1.1//EN" "http://www.w3.org/Graphics/SVG/1.1/DTD/svg11.dtd">
<svg xmlns="http://www.w3.org/2000/svg" version="1.1" width="128px" height="128px" style="shape-rendering:geometricPrecision; text-rendering:geometricPrecision; image-rendering:optimizeQuality; fill-rule:evenodd; clip-rule:evenodd" xmlns:xlink="http://www.w3.org/1999/xlink">
<g><path style="opacity:0.719" fill="#63AB45" d="M 61.5,4.5 C 62.8333,4.5 64.1667,4.5 65.5,4.5C 65.7564,6.7925 65.4231,8.95917 64.5,11C 66.1667,11.8333 67.8333,12.6667 69.5,13.5C 70.8751,10.4529 73.2084,9.11955 76.5,9.5C 76.067,12.2853 74.7337,14.6187 72.5,16.5C 73.8333,20.1667 73.8333,23.8333 72.5,27.5C 74.0413,29.204 75.3746,31.0374 76.5,33C 75.9915,34.1685 75.1581,35.0019 74,35.5C 72.3149,33.9825 70.8149,32.3159 69.5,30.5C 67.8333,31.3333 66.1667,32.1667 64.5,33C 65.4231,35.0408 65.7564,37.2075 65.5,39.5C 64.1667,39.5 62.8333,39.5 61.5,39.5C 61.2436,37.2075 61.5769,35.0408 62.5,33C 60.8333,32.1667 59.1667,31.3333 57.5,30.5C 56.1249,33.5471 53.7916,34.8804 50.5,34.5C 50.933,31.7147 52.2663,29.3813 54.5,27.5C 53.1667,23.8333 53.1667,20.1667 54.5,16.5C 52.2663,14.6187 50.933,12.2853 50.5,9.5C 53.7916,9.11955 56.1249,10.4529 57.5,13.5C 59.1667,12.6667 60.8333,11.8333 62.5,11C 61.5769,8.95917 61.2436,6.7925 61.5,4.5 Z M 60.5,16.5 C 65.4058,15.3057 68.4058,17.139 69.5,22C 67.5156,27.7465 64.0156,28.9132 59,25.5C 57.0583,22.1406 57.5583,19.1406 60.5,16.5 Z"/></g>
<g><path style="opacity:0.617" fill="#63AB45" d="M 46.5,19.5 C 48.1992,19.3398 49.8659,19.5065 51.5,20C 52.8333,21.3333 52.8333,22.6667 51.5,24C 49.8659,24.4935 48.1992,24.6602 46.5,24.5C 46.5,22.8333 46.5,21.1667 46.5,19.5 Z"/></g>
<g><path style="opacity:0.614" fill="#63AB45" d="M 75.5,19.5 C 77.1667,19.5 78.8333,19.5 80.5,19.5C 80.5,21.1667 80.5,22.8333 80.5,24.5C 75.58,25.585 73.9134,23.9183 75.5,19.5 Z"/></g>
<g><path style="opacity:0.763" fill="#63AB45" d="M 32.5,39.5 C 34.1439,39.2865 35.6439,39.6198 37,40.5C 41.4226,47.0112 46.0892,53.3446 51,59.5C 51.6838,60.7839 51.5171,61.9505 50.5,63C 48.5,63.3333 46.5,63.6667 44.5,64C 46.3333,66.5 48.1667,69 50,71.5C 53.6667,67.5 57.3333,63.5 61,59.5C 61.4986,55.8484 61.6653,52.1817 61.5,48.5C 62.8333,48.5 64.1667,48.5 65.5,48.5C 65.3347,52.1817 65.5014,55.8484 66,59.5C 69.2981,63.7998 72.9648,67.7998 77,71.5C 78.8333,69 80.6667,66.5 82.5,64C 80.5,63.6667 78.5,63.3333 76.5,63C 75.4829,61.9505 75.3162,60.7839 76,59.5C 80.9552,53.0892 85.7885,46.5892 90.5,40C 91.9437,39.2195 93.277,39.3861 94.5,40.5C 98.8076,46.6414 103.308,52.6414 108,58.5C 108.494,60.1341 108.66,61.8008 108.5,63.5C 106.396,63.2011 104.396,63.5344 102.5,64.5C 106.434,68.9311 109.767,73.7645 112.5,79C 112.355,79.772 112.022,80.4387 111.5,81C 109.167,81.3333 106.833,81.6667 104.5,82C 108.904,87.4 112.904,93.0666 116.5,99C 116.355,99.772 116.022,100.439 115.5,101C 112.833,101.333 110.167,101.667 107.5,102C 109.074,103.826 109.907,105.993 110,108.5C 112,110.5 114,112.5 116,114.5C 116.497,112.19 116.663,109.857 116.5,107.5C 117.833,107.5 119.167,107.5 120.5,107.5C 120.666,112.179 120.499,116.845 120,121.5C 118.951,122.517 117.784,122.684 116.5,122C 114.333,119.833 112.167,117.667 110,115.5C 109.503,117.81 109.337,120.143 109.5,122.5C 78.8333,122.5 48.1667,122.5 17.5,122.5C 17.6633,120.143 17.4966,117.81 17,115.5C 14.8333,117.667 12.6667,119.833 10.5,122C 9.21613,122.684 8.04946,122.517 7,121.5C 6.50085,116.845 6.33418,112.179 6.5,107.5C 7.83333,107.5 9.16667,107.5 10.5,107.5C 10.3367,109.857 10.5034,112.19 11,114.5C 13,112.5 15,110.5 17,108.5C 17.0929,105.993 17.9262,103.826 19.5,102C 16.8333,101.667 14.1667,101.333 11.5,101C 10.9781,100.439 10.6448,99.772 10.5,99C 14.0965,93.0666 18.0965,87.4 22.5,82C 20.1667,81.6667 17.8333,81.3333 15.5,81C 14.9781,80.4387 14.6448,79.772 14.5,79C 17.2331,73.7645 20.5664,68.9311 24.5,64.5C 21.7494,63.984 19.4161,62.8173 17.5,61C 22.7453,53.9354 27.7453,46.7687 32.5,39.5 Z M 33.5,46.5 C 35.0174,46.5106 36.1841,47.1772 37,48.5C 39.1667,51.5 41.3333,54.5 43.5,57.5C 41.9223,58.2978 40.2556,58.7978 38.5,59C 37.9415,59.7247 37.6082,60.5581 37.5,61.5C 40.0753,66.0842 43.0753,70.4176 46.5,74.5C 40.303,81.2125 33.303,88.3792 25.5,96C 22.8333,96.6667 20.1667,96.6667 17.5,96C 21.4537,91.2577 25.287,86.4244 29,81.5C 29.4935,79.8659 29.6602,78.1992 29.5,76.5C 26.8127,76.6641 24.146,76.4974 21.5,76C 25.3625,71.7714 28.8625,67.2714 32,62.5C 32.7494,61.365 32.5827,60.365 31.5,59.5C 29.556,58.8108 27.556,58.3108 25.5,58C 28.2997,54.2249 30.9664,50.3916 33.5,46.5 Z M 91.5,46.5 C 92.4959,46.4142 93.3292,46.7476 94,47.5C 96.3773,51.088 98.8773,54.588 101.5,58C 99.8333,58.3333 98.1667,58.6667 96.5,59C 95.572,59.3879 94.9054,60.0546 94.5,61C 97.6726,66.3379 101.339,71.3379 105.5,76C 102.854,76.4974 100.187,76.6641 97.5,76.5C 97.3398,78.1992 97.5065,79.8659 98,81.5C 101.713,86.4244 105.546,91.2577 109.5,96C 106.833,96.6667 104.167,96.6667 101.5,96C 93.697,88.3792 86.697,81.2125 80.5,74.5C 83.1421,70.6906 85.9754,67.0239 89,63.5C 89.6667,62.1667 89.6667,60.8333 89,59.5C 87.1746,58.8971 85.3413,58.2304 83.5,57.5C 86.1914,53.8151 88.8581,50.1484 91.5,46.5 Z M 60.5,66.5 C 61.647,70.6463 61.8136,74.9796 61,79.5C 55.6243,95.1997 46.1243,107.7 32.5,117C 28.8484,117.499 25.1817,117.665 21.5,117.5C 21.3347,113.818 21.5014,110.152 22,106.5C 34.6727,92.9943 47.5061,79.661 60.5,66.5 Z M 65.5,66.5 C 79.1607,79.3275 92.3274,92.6608 105,106.5C 105.499,110.152 105.665,113.818 105.5,117.5C 101.818,117.665 98.1516,117.499 94.5,117C 76.5137,104.869 66.847,88.0353 65.5,66.5 Z M 60.5,91.5 C 61.493,99.9839 61.8264,108.651 61.5,117.5C 54.4921,117.666 47.4921,117.5 40.5,117C 49.2512,110.088 55.9179,101.588 60.5,91.5 Z M 65.5,91.5 C 70.8069,101.315 77.8069,109.815 86.5,117C 79.5079,117.5 72.5079,117.666 65.5,117.5C 65.5,108.833 65.5,100.167 65.5,91.5 Z"/></g>
</svg>
