<?xml version="1.0" encoding="UTF-8"?>
<!DOCTYPE svg PUBLIC "-//W3C//DTD SVG 1.1//EN" "http://www.w3.org/Graphics/SVG/1.1/DTD/svg11.dtd">
<svg xmlns="http://www.w3.org/2000/svg" version="1.1" width="512px" height="512px" style="shape-rendering:geometricPrecision; text-rendering:geometricPrecision; image-rendering:optimizeQuality; fill-rule:evenodd; clip-rule:evenodd" xmlns:xlink="http://www.w3.org/1999/xlink">
<g><path style="opacity:0.939" fill="#63AB45" d="M -0.5,494.5 C -0.5,429.167 -0.5,363.833 -0.5,298.5C 2.25855,288.895 7.92521,281.395 16.5,276C 39.9443,268.056 63.6109,260.89 87.5,254.5C 87.6663,247.159 87.4997,239.826 87,232.5C 66.779,216.403 55.1123,195.403 52,169.5C 37.7956,162.759 32.4623,151.759 36,136.5C 37.5127,132.319 39.846,128.652 43,125.5C 43.0774,106.129 43.744,86.7959 45,67.5C 53.046,36.4537 72.8793,18.287 104.5,13C 133.5,12.3333 162.5,12.3333 191.5,13C 204.796,16.2949 213.63,24.4616 218,37.5C 227.521,44.5362 233.521,53.8696 236,65.5C 236.333,85.5 236.667,105.5 237,125.5C 244.262,132.288 246.929,140.621 245,150.5C 242.794,159.9 237.128,166.233 228,169.5C 225.312,195.629 213.646,216.629 193,232.5C 192.5,239.826 192.334,247.159 192.5,254.5C 213.898,260.35 235.231,266.517 256.5,273C 263.124,275.043 268.291,278.876 272,284.5C 273.131,290.538 270.631,293.871 264.5,294.5C 246.778,286.926 228.445,280.926 209.5,276.5C 204.151,325.898 191.318,373.232 171,418.5C 164.166,432.811 156.333,446.478 147.5,459.5C 153.083,469.002 158.916,478.335 165,487.5C 165.248,498.572 160.581,501.239 151,495.5C 120.684,450.853 99.0174,402.186 86,349.5C 79.5612,325.473 74.7278,301.139 71.5,276.5C 55.2269,280.402 39.2269,285.235 23.5,291C 20.2379,293.592 17.7379,296.759 16,300.5C 14.688,365.136 14.0213,429.802 14,494.5C 9.16873,499.786 4.33539,499.786 -0.5,494.5 Z M 105.5,28.5 C 133.169,28.3334 160.835,28.5 188.5,29C 197.527,31.8636 202.693,38.0302 204,47.5C 211.713,52.2557 217.046,58.9224 220,67.5C 220.333,88.5 220.667,109.5 221,130.5C 223.251,134.425 225.917,138.092 229,141.5C 229.652,144.594 229.318,147.594 228,150.5C 223.284,153.189 218.451,155.522 213.5,157.5C 211.987,193.408 194.654,217.908 161.5,231C 131.517,238.63 106.017,231.13 85,208.5C 73.9889,194.471 68.3223,178.471 68,160.5C 67.2935,158.919 66.4601,157.419 65.5,156C 61.0755,155.181 56.9089,153.681 53,151.5C 48.6987,143.399 50.8654,137.899 59.5,135C 67.6033,134.937 75.6033,134.27 83.5,133C 86.9178,125.75 89.7511,118.25 92,110.5C 92.3879,109.572 93.0546,108.905 94,108.5C 124.729,107.729 154.896,103.229 184.5,95C 189.81,93.0116 194.81,90.5116 199.5,87.5C 202.51,82.3724 201.51,78.2058 196.5,75C 194.5,74.3333 192.5,74.3333 190.5,75C 175.106,81.5155 159.106,85.8489 142.5,88C 122.879,90.1872 103.212,91.8539 83.5,93C 82.0692,93.4652 80.9025,94.2986 80,95.5C 77.5987,102.871 75.0987,110.204 72.5,117.5C 68.2172,118.492 63.8839,118.826 59.5,118.5C 59.3334,103.83 59.5001,89.1629 60,74.5C 65.356,49.3113 80.5227,33.9779 105.5,28.5 Z M 103.5,242.5 C 127.508,253.073 151.508,253.073 175.5,242.5C 176.661,246.795 176.828,251.129 176,255.5C 163.833,262.582 151.833,269.916 140,277.5C 128.416,269.956 116.583,262.79 104.5,256C 103.533,251.599 103.2,247.099 103.5,242.5 Z M 93.5,268.5 C 105.262,275.079 116.929,281.912 128.5,289C 122.702,296.115 117.035,303.281 111.5,310.5C 104.833,306.167 98.1667,301.833 91.5,297.5C 89.2951,288.605 87.6285,279.605 86.5,270.5C 89.1522,270.59 91.4855,269.924 93.5,268.5 Z M 185.5,268.5 C 187.993,269.774 190.659,270.44 193.5,270.5C 193.222,279.282 192.055,287.949 190,296.5C 183.262,301.574 176.262,306.241 169,310.5C 163.334,303.663 157.834,296.663 152.5,289.5C 163.359,282.24 174.359,275.24 185.5,268.5 Z M 139.5,300.5 C 147.004,305.985 150.337,313.318 149.5,322.5C 143.167,322.5 136.833,322.5 130.5,322.5C 130.335,319.15 130.502,315.817 131,312.5C 133.664,308.343 136.497,304.343 139.5,300.5 Z M 184.5,319.5 C 185.139,320.097 185.472,320.93 185.5,322C 180.619,344.644 174.119,366.81 166,388.5C 162.681,370.928 160.348,353.261 159,335.5C 161.022,333.478 163.022,331.478 165,329.5C 168.291,329.973 171.458,329.14 174.5,327C 178.08,324.723 181.414,322.223 184.5,319.5 Z M 95.5,321.5 C 95.8966,320.475 96.5632,320.308 97.5,321C 101.5,323.667 105.5,326.333 109.5,329C 111.824,330.374 114.157,330.707 116.5,330C 118.31,332.644 120.31,335.144 122.5,337.5C 119.676,353.766 117.176,370.099 115,386.5C 111.415,378.08 108.415,369.414 106,360.5C 102.629,347.339 99.1288,334.339 95.5,321.5 Z M 138.5,338.5 C 139.833,338.5 141.167,338.5 142.5,338.5C 145.699,364.225 149.366,389.892 153.5,415.5C 149.785,425.269 144.785,434.269 138.5,442.5C 133.554,434.441 129.554,425.941 126.5,417C 130.45,390.804 134.45,364.638 138.5,338.5 Z"/></g>
<g><path style="opacity:0.935" fill="#63AB45" d="M 511.5,358.5 C 511.5,377.167 511.5,395.833 511.5,414.5C 509.723,417.389 507.056,418.722 503.5,418.5C 503.667,442.836 503.5,467.169 503,491.5C 501.535,497.653 497.702,499.82 491.5,498C 490.333,496.833 489.167,495.667 488,494.5C 487.5,469.169 487.333,443.836 487.5,418.5C 480.833,418.5 474.167,418.5 467.5,418.5C 467.667,443.836 467.5,469.169 467,494.5C 463.58,498.753 459.413,499.587 454.5,497C 453.107,495.829 452.273,494.329 452,492.5C 451.041,457.8 451.375,423.133 453,388.5C 454.279,383.275 456.612,378.609 460,374.5C 469.409,366.88 478.909,359.38 488.5,352C 483.759,349.297 478.759,347.131 473.5,345.5C 445.647,365.264 414.481,374.931 380,374.5C 353.092,374.653 327.592,368.819 303.5,357C 297.551,353.44 292.051,349.274 287,344.5C 282.241,346.795 277.408,348.962 272.5,351C 271.289,351.893 271.289,352.726 272.5,353.5C 282.434,360.598 291.934,368.264 301,376.5C 303.804,380.443 305.804,384.777 307,389.5C 307.667,424.5 307.667,459.5 307,494.5C 303.58,498.753 299.413,499.587 294.5,497C 293.283,495.352 292.45,493.519 292,491.5C 291.5,467.169 291.333,442.836 291.5,418.5C 285.167,418.5 278.833,418.5 272.5,418.5C 272.667,443.169 272.5,467.836 272,492.5C 270.02,497.906 266.186,499.739 260.5,498C 259.333,496.833 258.167,495.667 257,494.5C 256.5,469.169 256.333,443.836 256.5,418.5C 252.317,419.154 249.484,417.488 248,413.5C 247.333,395.833 247.333,378.167 248,360.5C 251.287,345.379 260.454,336.046 275.5,332.5C 283.423,303.063 291.756,273.73 300.5,244.5C 296.082,234.58 293.082,224.246 291.5,213.5C 283.012,210.181 277.512,204.181 275,195.5C 274.333,177.167 274.333,158.833 275,140.5C 277.536,121.547 284.369,104.381 295.5,89C 287.641,67.3852 293.974,51.3852 314.5,41C 325.953,37.5406 336.787,39.0406 347,45.5C 356.721,29.5848 369.887,26.0848 386.5,35C 391.419,38.6764 394.419,43.5097 395.5,49.5C 432.712,55.5411 459.545,75.5411 476,109.5C 485.057,131.176 487.557,153.509 483.5,176.5C 478.374,180.409 473.874,179.742 470,174.5C 473.801,138.548 462.634,108.382 436.5,84C 424.579,74.8739 411.245,68.7072 396.5,65.5C 393.705,68.4702 391.038,71.6369 388.5,75C 380.362,81.6042 371.362,83.1042 361.5,79.5C 354.608,101.113 339.941,110.279 317.5,107C 313.719,106.076 310.219,104.576 307,102.5C 299.605,112.299 294.605,123.299 292,135.5C 290.676,145.116 290.176,154.783 290.5,164.5C 304.372,164.811 315.872,159.811 325,149.5C 330.202,142.93 335.035,136.097 339.5,129C 341.137,128.399 342.803,127.899 344.5,127.5C 353.357,133.096 362.69,137.93 372.5,142C 394.602,147.287 416.602,152.954 438.5,159C 455.152,165.995 464.652,178.495 467,196.5C 468.72,213.178 466.22,229.178 459.5,244.5C 467.768,273.471 475.935,302.471 484,331.5C 497.718,336.052 506.884,345.052 511.5,358.5 Z M 367.5,46.5 C 379.287,46.4482 382.787,51.7816 378,62.5C 371.62,67.024 366.287,66.024 362,59.5C 360.571,53.7001 362.404,49.3668 367.5,46.5 Z M 320.5,55.5 C 334.423,53.7587 342.757,59.7587 345.5,73.5C 344.175,84.8247 337.842,91.158 326.5,92.5C 315.158,91.158 308.825,84.8247 307.5,73.5C 308.779,65.2313 313.112,59.2313 320.5,55.5 Z M 346.5,147.5 C 354.757,152.126 363.424,155.959 372.5,159C 392.666,163.366 412.666,168.366 432.5,174C 446.192,180.874 452.526,192.041 451.5,207.5C 449.408,240.083 433.242,262.416 403,274.5C 367.166,284.336 338.832,274.003 318,243.5C 311.058,230.735 307.392,217.069 307,202.5C 306.167,201.667 305.333,200.833 304.5,200C 299.678,199.514 295.511,197.681 292,194.5C 289.033,188.226 290.533,183.392 296.5,180C 312.175,179.078 325.342,172.911 336,161.5C 339.752,156.982 343.252,152.316 346.5,147.5 Z M 311.5,262.5 C 318.861,270.355 327.027,277.355 336,283.5C 336.667,289.833 336.667,296.167 336,302.5C 335.496,306.02 333.663,308.52 330.5,310C 318.489,314.447 306.656,319.28 295,324.5C 300.168,303.817 305.668,283.15 311.5,262.5 Z M 464.5,323.5 C 451.975,319.241 439.642,314.407 427.5,309C 425.951,307.786 424.785,306.286 424,304.5C 423.169,297.144 423.335,289.811 424.5,282.5C 433.041,277.299 440.707,270.966 447.5,263.5C 453.792,283.336 459.459,303.336 464.5,323.5 Z M 352.5,290.5 C 370.828,295.833 389.162,295.833 407.5,290.5C 404.939,302.981 408.273,313.481 417.5,322C 429.906,327.867 442.573,333.201 455.5,338C 432.193,351.995 406.859,358.828 379.5,358.5C 352.406,358.979 327.406,352.145 304.5,338C 317.865,333.103 330.865,327.436 343.5,321C 351.209,312.33 354.209,302.163 352.5,290.5 Z M 263.5,367.5 C 272.077,373.236 280.243,379.569 288,386.5C 291.059,391.355 292.226,396.689 291.5,402.5C 282.167,402.5 272.833,402.5 263.5,402.5C 263.5,390.833 263.5,379.167 263.5,367.5 Z M 494.5,367.5 C 496.478,378.785 497.145,390.452 496.5,402.5C 486.833,402.5 477.167,402.5 467.5,402.5C 467.07,396.295 468.57,390.628 472,385.5C 479.661,379.601 487.161,373.601 494.5,367.5 Z"/></g>
<g><path style="opacity:0.888" fill="#63AB45" d="M 102.5,136.5 C 106.888,135.943 110.055,137.61 112,141.5C 112.667,146.5 112.667,151.5 112,156.5C 108.914,161.752 104.747,162.752 99.5,159.5C 98.4164,158.335 97.5831,157.002 97,155.5C 96.3333,151.167 96.3333,146.833 97,142.5C 98.0209,139.65 99.8542,137.65 102.5,136.5 Z"/></g>
<g><path style="opacity:0.888" fill="#63AB45" d="M 173.5,136.5 C 177.888,135.943 181.055,137.61 183,141.5C 183.667,146.5 183.667,151.5 183,156.5C 179.914,161.752 175.747,162.752 170.5,159.5C 169.416,158.335 168.583,157.002 168,155.5C 167.333,151.167 167.333,146.833 168,142.5C 169.021,139.65 170.854,137.65 173.5,136.5 Z"/></g>
<g><path style="opacity:0.91" fill="#63AB45" d="M 122.5,180.5 C 126.539,182.358 130.205,184.858 133.5,188C 138.686,190.226 143.686,189.893 148.5,187C 152.731,180.571 157.898,179.404 164,183.5C 166.891,189.897 165.391,195.064 159.5,199C 146.528,207.623 133.528,207.623 120.5,199C 111.908,191.342 112.575,185.175 122.5,180.5 Z"/></g>
<g><path style="opacity:0.893" fill="#63AB45" d="M 343.5,180.5 C 350.627,181.787 353.627,186.12 352.5,193.5C 353.483,202.686 349.483,206.519 340.5,205C 337.007,202.036 335.674,198.203 336.5,193.5C 334.997,186.825 337.33,182.491 343.5,180.5 Z"/></g>
<g><path style="opacity:0.893" fill="#63AB45" d="M 414.5,180.5 C 421.627,181.787 424.627,186.12 423.5,193.5C 424.483,202.686 420.483,206.519 411.5,205C 408.007,202.036 406.674,198.203 407.5,193.5C 405.997,186.825 408.33,182.491 414.5,180.5 Z"/></g>
<g><path style="opacity:0.91" fill="#63AB45" d="M 358.5,225.5 C 364.289,225.095 368.956,227.261 372.5,232C 378.015,235.395 383.348,235.062 388.5,231C 394.018,223.979 399.518,223.812 405,230.5C 406.064,235.878 404.231,240.044 399.5,243C 383.16,253.862 368.327,252.029 355,237.5C 353.593,232.599 354.76,228.599 358.5,225.5 Z"/></g>
<g><path style="opacity:0.93" fill="#63AB45" d="M 49.5,340.5 C 54.0622,340.361 57.2289,342.361 59,346.5C 59.6667,395.167 59.6667,443.833 59,492.5C 57.0197,497.906 53.1864,499.739 47.5,498C 46.3333,496.833 45.1667,495.667 44,494.5C 43.3333,444.833 43.3333,395.167 44,345.5C 45.1065,342.887 46.9399,341.22 49.5,340.5 Z"/></g>
<g><path style="opacity:0.932" fill="#63AB45" d="M 227.5,340.5 C 230.939,340.589 233.772,341.922 236,344.5C 236.667,394.5 236.667,444.5 236,494.5C 232.58,498.753 228.413,499.587 223.5,497C 222.283,495.352 221.45,493.519 221,491.5C 220.333,443.5 220.333,395.5 221,347.5C 222.018,343.985 224.185,341.652 227.5,340.5 Z"/></g>
</svg>
