<?xml version="1.0" encoding="UTF-8"?>
<!DOCTYPE svg PUBLIC "-//W3C//DTD SVG 1.1//EN" "http://www.w3.org/Graphics/SVG/1.1/DTD/svg11.dtd">
<svg xmlns="http://www.w3.org/2000/svg" version="1.1" width="512px" height="512px" style="shape-rendering:geometricPrecision; text-rendering:geometricPrecision; image-rendering:optimizeQuality; fill-rule:evenodd; clip-rule:evenodd" xmlns:xlink="http://www.w3.org/1999/xlink">
<g><path style="opacity:0.959" fill="#63AB45" d="M 125.5,71.5 C 205.834,71.3333 286.167,71.5 366.5,72C 420.658,82.1577 452.824,114.324 463,168.5C 463.5,186.83 463.667,205.164 463.5,223.5C 472.839,223.334 482.173,223.5 491.5,224C 493.333,224.5 494.5,225.667 495,227.5C 495.514,236.816 492.847,245.15 487,252.5C 480.758,260.118 473.091,265.785 464,269.5C 463.333,280.833 463.333,292.167 464,303.5C 466.501,318.995 475.668,327.162 491.5,328C 493.333,328.5 494.5,329.667 495,331.5C 495.667,342.167 495.667,352.833 495,363.5C 494.5,365.333 493.333,366.5 491.5,367C 478.5,367.667 465.5,367.667 452.5,367C 424.117,360.951 406.617,343.784 400,315.5C 399.833,300.156 399.333,284.822 398.5,269.5C 370.636,258.485 357.303,237.819 358.5,207.5C 350.007,226.823 342.341,246.489 335.5,266.5C 343.031,287.926 350.865,309.259 359,330.5C 359.333,352.833 359.667,375.167 360,397.5C 365,407.5 370,417.5 375,427.5C 375.667,430.167 375.667,432.833 375,435.5C 374.5,437.333 373.333,438.5 371.5,439C 352.077,439.975 332.743,439.641 313.5,438C 307.542,429.252 301.709,420.419 296,411.5C 295.667,397.833 295.333,384.167 295,370.5C 290,383.5 285,396.5 280,409.5C 279.947,418.934 279.28,428.267 278,437.5C 277.25,438.126 276.416,438.626 275.5,439C 270.167,439.167 264.833,439.333 259.5,439.5C 253.395,439.624 247.395,439.124 241.5,438C 232.872,421.244 224.372,404.411 216,387.5C 215.833,385.833 215.667,384.167 215.5,382.5C 220.469,356.154 226.135,329.987 232.5,304C 216.17,303.5 199.837,303.333 183.5,303.5C 183.333,337.168 183.5,370.835 184,404.5C 189,412.167 194,419.833 199,427.5C 199.929,431.244 199.429,434.744 197.5,438C 183.59,439.15 169.59,439.65 155.5,439.5C 141.41,439.65 127.41,439.15 113.5,438C 111.544,434.405 111.044,430.572 112,426.5C 114.167,420 116.333,413.5 118.5,407C 113.077,389.477 107.577,371.977 102,354.5C 95.0282,371.61 88.1949,388.777 81.5,406C 85.8686,413.234 90.3686,420.401 95,427.5C 95.9285,431.244 95.4285,434.744 93.5,438C 74.2566,439.641 54.9233,439.975 35.5,439C 28.2876,430.436 21.7876,421.269 16,411.5C 15.3333,334.833 15.3333,258.167 16,181.5C 23.3559,134.495 48.5225,100.995 91.5,81C 102.64,76.6688 113.974,73.5021 125.5,71.5 Z M 140.5,87.5 C 169.835,87.3334 199.169,87.5 228.5,88C 213.683,107.447 211.516,128.28 222,150.5C 226.089,156.593 230.922,162.093 236.5,167C 251.797,179.962 266.797,193.295 281.5,207C 286.202,210.851 291.535,213.351 297.5,214.5C 312.558,255.503 327.724,296.503 343,337.5C 343.333,359.5 343.667,381.5 344,403.5C 347.167,409.833 350.333,416.167 353.5,422.5C 343.851,423.665 334.184,423.832 324.5,423C 320.543,417.587 316.71,412.087 313,406.5C 311.694,389.591 311.028,372.591 311,355.5C 310.07,353.448 308.57,351.948 306.5,351C 292.5,343 278.5,335 264.5,327C 257.24,321.072 252.407,313.572 250,304.5C 243.798,280.688 237.131,257.022 230,233.5C 218.333,227.5 206.667,221.5 195,215.5C 192.5,220.5 190,225.5 187.5,230.5C 196.921,235.627 206.421,240.627 216,245.5C 220.149,259.431 223.982,273.431 227.5,287.5C 202.167,287.5 176.833,287.5 151.5,287.5C 151.5,292.833 151.5,298.167 151.5,303.5C 156.833,303.5 162.167,303.5 167.5,303.5C 167.333,339.502 167.5,375.502 168,411.5C 170.5,415.333 173,419.167 175.5,423C 160.822,423.833 146.155,423.666 131.5,422.5C 134.88,416.202 136.047,409.535 135,402.5C 124.667,368.833 114.333,335.167 104,301.5C 103.208,299.413 102.041,297.579 100.5,296C 87.8333,285 75.1667,274 62.5,263C 34.8228,236.948 25.9895,205.448 36,168.5C 52.9595,118.367 87.7929,91.3672 140.5,87.5 Z M 267.5,87.5 C 300.187,87.1022 332.854,87.6022 365.5,89C 404.368,96.5349 430.202,119.035 443,156.5C 445.526,165.321 446.859,174.321 447,183.5C 447.5,196.829 447.667,210.163 447.5,223.5C 439.493,223.666 431.493,223.5 423.5,223C 414.333,221.833 409.167,216.667 408,207.5C 407.667,197.167 407.333,186.833 407,176.5C 401.543,162.518 391.376,157.018 376.5,160C 362.372,165.748 356.705,176.248 359.5,191.5C 353.491,191.666 347.491,191.499 341.5,191C 342.191,189.933 342.691,188.766 343,187.5C 343.167,175.5 343.333,163.5 343.5,151.5C 343.649,138.742 343.149,126.075 342,113.5C 341.25,112.874 340.416,112.374 339.5,112C 319.503,111.5 299.503,111.333 279.5,111.5C 279.5,116.833 279.5,122.167 279.5,127.5C 295.5,127.5 311.5,127.5 327.5,127.5C 327.667,144.503 327.5,161.503 327,178.5C 322.94,197.212 312.107,202.712 294.5,195C 277.833,180.333 261.167,165.667 244.5,151C 230.69,136.222 228.856,120.055 239,102.5C 246.45,93.3606 255.95,88.3606 267.5,87.5 Z M 380.5,176.5 C 384.684,175.704 387.85,177.037 390,180.5C 391.27,192.096 391.936,203.762 392,215.5C 395.167,228 403,235.833 415.5,239C 435.167,239.333 454.833,239.667 474.5,240C 467.768,249.702 458.434,254.702 446.5,255C 391.166,262.666 367.666,238.833 376,183.5C 376.53,180.415 378.03,178.082 380.5,176.5 Z M 329.5,207.5 C 332.85,207.335 336.183,207.502 339.5,208C 334.809,219.07 330.309,230.236 326,241.5C 322.411,232.907 318.911,224.24 315.5,215.5C 319.611,213.945 323.611,212.112 327.5,210C 328.381,209.292 329.047,208.458 329.5,207.5 Z M 31.5,254.5 C 38.5674,263.073 46.2341,271.239 54.5,279C 65.6667,288.833 76.8333,298.667 88,308.5C 89.7856,315.149 91.9523,321.649 94.5,328C 83.9466,352.99 73.7799,378.156 64,403.5C 63.3333,406.167 63.3333,408.833 64,411.5C 66.5,415.333 69,419.167 71.5,423C 62.5,423.667 53.5,423.667 44.5,423C 40.2095,416.92 36.0429,410.753 32,404.5C 31.5,354.501 31.3333,304.501 31.5,254.5 Z M 415.5,271.5 C 426.167,271.5 436.833,271.5 447.5,271.5C 447.066,286.558 447.566,301.558 449,316.5C 454.27,330.771 464.27,339.771 479,343.5C 479.497,346.146 479.664,348.813 479.5,351.5C 452.832,355.247 432.999,345.581 420,322.5C 418.798,319.226 417.798,315.893 417,312.5C 415.689,298.868 415.189,285.201 415.5,271.5 Z M 243.5,330.5 C 246.971,334.803 250.971,338.636 255.5,342C 264.332,346.915 272.999,352.082 281.5,357.5C 275.568,372.794 269.735,388.128 264,403.5C 263.5,410.158 263.334,416.825 263.5,423.5C 259.774,423.823 256.107,423.489 252.5,422.5C 245.697,409.062 239.031,395.562 232.5,382C 236.489,364.89 240.155,347.723 243.5,330.5 Z"/></g>
<g><path style="opacity:0.95" fill="#63AB45" d="M 383.5,127.5 C 388.297,127.121 392.964,127.621 397.5,129C 398.126,129.75 398.626,130.584 399,131.5C 399.499,135.486 399.666,139.486 399.5,143.5C 394.703,143.879 390.036,143.379 385.5,142C 384.874,141.25 384.374,140.416 384,139.5C 383.501,135.514 383.334,131.514 383.5,127.5 Z"/></g>
</svg>
